<svg width="30" height="30" viewBox="0 0 30 30" fill="none" xmlns="http://www.w3.org/2000/svg">
<path d="M15.0537 1C12.5113 1.00047 10.0166 1.69064 7.83539 2.99698C5.65421 4.30331 3.86826 6.17688 2.66781 8.41808C1.46736 10.6593 0.897377 13.1842 1.01858 15.7237C1.13979 18.2633 1.94765 20.7224 3.35609 22.8391L1 29.1053L8.88996 27.6777C10.7901 28.6073 12.8757 29.096 14.991 29.1072C17.1064 29.1185 19.197 28.6521 21.107 27.7428C23.017 26.8335 24.6971 25.5047 26.022 23.8556C27.3468 22.2065 28.2823 20.2796 28.7587 18.2185C29.2351 16.1574 29.24 14.0154 28.7732 11.9522C28.3063 9.88893 27.3797 7.9577 26.0625 6.30248C24.7452 4.64727 23.0713 3.31077 21.1655 2.39265C19.2597 1.47454 17.1691 0.998487 15.0537 1Z" stroke="black" stroke-width="1.2714" stroke-linecap="round" stroke-linejoin="round"/>
<path d="M11.8106 11.8106C11.8106 11.1691 12.0008 10.5421 12.3571 10.0087C12.7135 9.47541 13.22 9.05972 13.8126 8.81426C14.4052 8.56879 15.0573 8.50456 15.6864 8.6297C16.3155 8.75484 16.8934 9.06372 17.347 9.51729C17.8005 9.97085 18.1094 10.5487 18.2346 11.1778C18.3597 11.807 18.2955 12.459 18.05 13.0517C17.8045 13.6443 17.3889 14.1508 16.8555 14.5071C16.3222 14.8635 15.6952 15.0537 15.0537 15.0537V17.2158M15.0581 22.6211C14.9147 22.6211 14.7772 22.5642 14.6759 22.4628C14.5745 22.3614 14.5176 22.2239 14.5176 22.0806C14.5176 21.9372 14.5745 21.7997 14.6759 21.6984C14.7772 21.597 14.9147 21.54 15.0581 21.54C15.2014 21.54 15.3389 21.597 15.4403 21.6984C15.5417 21.7997 15.5986 21.9372 15.5986 22.0806C15.5986 22.2239 15.5417 22.3614 15.4403 22.4628C15.3389 22.5642 15.2014 22.6211 15.0581 22.6211Z" stroke="black" stroke-width="1.2714" stroke-linecap="round" stroke-linejoin="round"/>
</svg>
