<svg width="20" height="20" viewBox="0 0 20 20" fill="none" xmlns="http://www.w3.org/2000/svg">
<path fill-rule="evenodd" clip-rule="evenodd" d="M10 11.8859L17.5427 19.4285C17.7942 19.6714 18.131 19.8058 18.4806 19.8028C18.8302 19.7997 19.1646 19.6595 19.4118 19.4123C19.659 19.1651 19.7992 18.8307 19.8023 18.4811C19.8053 18.1315 19.6709 17.7947 19.428 17.5432L11.8854 10.0005L19.428 2.45786C19.6709 2.20639 19.8053 1.86959 19.8023 1.51999C19.7992 1.17039 19.659 0.835978 19.4118 0.588767C19.1646 0.341556 18.8302 0.20133 18.4806 0.198293C18.131 0.195255 17.7942 0.329647 17.5427 0.572525L10 8.11519L2.45736 0.572525C2.20476 0.335651 1.86991 0.206345 1.52367 0.211968C1.17743 0.21759 0.846952 0.3577 0.602175 0.60265C0.357398 0.8476 0.217522 1.17817 0.212144 1.52442C0.206767 1.87067 0.33631 2.20542 0.573362 2.45786L8.1147 10.0005L0.572029 17.5432C0.444682 17.6662 0.343106 17.8133 0.273227 17.976C0.203349 18.1387 0.166567 18.3136 0.165028 18.4907C0.16349 18.6677 0.197225 18.8433 0.264266 19.0071C0.331308 19.171 0.430312 19.3199 0.555502 19.4451C0.680692 19.5702 0.829562 19.6692 0.993424 19.7363C1.15729 19.8033 1.33286 19.8371 1.5099 19.8355C1.68694 19.834 1.8619 19.7972 2.02457 19.7273C2.18724 19.6574 2.33437 19.5559 2.45736 19.4285L10 11.8859Z" fill="#F05178"/>
</svg>
