<svg width="34" height="28" viewBox="0 0 34 28" fill="none" xmlns="http://www.w3.org/2000/svg">
<path d="M20.5 20.5V23.75C20.5 24.612 20.1576 25.4386 19.5481 26.0481C18.9386 26.6576 18.112 27 17.25 27H4.25C3.38805 27 2.5614 26.6576 1.9519 26.0481C1.34241 25.4386 1 24.612 1 23.75V4.25C1 3.38805 1.34241 2.5614 1.9519 1.9519C2.5614 1.34241 3.38805 1 4.25 1H16.6C18.3948 1 20.5 2.45519 20.5 4.25V7.5M25.7 20.5L32.2 14L25.7 7.5M10.1 14H30.9" stroke="#E33629" stroke-width="1.73333" stroke-linecap="round" stroke-linejoin="round"/>
</svg>
