<svg width="34" height="34" viewBox="0 0 34 34" fill="none" xmlns="http://www.w3.org/2000/svg">
<path d="M16.9971 2.83398C12.7358 2.83398 9.97331 5.69423 6.70648 6.7369C5.37765 7.1619 4.71323 7.37298 4.44406 7.6719C4.1749 7.9694 4.09698 8.40715 3.93973 9.27982C2.2539 18.6242 5.93723 27.263 14.7206 30.6262C15.6626 30.9874 16.1344 31.1673 17.0014 31.1673C17.8684 31.1673 18.3416 30.986 19.2851 30.6247C28.067 27.263 31.7461 18.6242 30.0602 9.27982C29.903 8.40715 29.8236 7.9694 29.5545 7.67048C29.2853 7.37157 28.6223 7.16048 27.2935 6.7369C24.0252 5.69423 21.2585 2.83398 16.9971 2.83398Z" stroke="black" stroke-width="1.5" stroke-linecap="round" stroke-linejoin="round"/>
<path d="M12.75 18.4167C12.75 18.4167 14.1667 18.4167 15.5833 21.25C15.5833 21.25 20.0841 14.1667 24.0833 12.75" stroke="black" stroke-width="1.5" stroke-linecap="round" stroke-linejoin="round"/>
</svg>
