<svg width="24" height="29" viewBox="0 0 24 29" fill="none" xmlns="http://www.w3.org/2000/svg">
<path d="M11.6 15.95C11.1585 15.9448 10.7261 16.075 10.3609 16.3231C9.99568 16.5711 9.71521 16.9251 9.55726 17.3374C9.39931 17.7496 9.37144 18.2004 9.47742 18.629C9.58339 19.0575 9.81812 19.4434 10.15 19.7345V21.75C10.15 22.1346 10.3028 22.5034 10.5747 22.7753C10.8466 23.0472 11.2154 23.2 11.6 23.2C11.9846 23.2 12.3534 23.0472 12.6253 22.7753C12.8972 22.5034 13.05 22.1346 13.05 21.75V19.7345C13.3819 19.4434 13.6166 19.0575 13.7226 18.629C13.8286 18.2004 13.8007 17.7496 13.6427 17.3374C13.4848 16.9251 13.2043 16.5711 12.8391 16.3231C12.4739 16.075 12.0415 15.9448 11.6 15.95ZM18.85 10.15V7.25C18.85 5.32718 18.0862 3.48311 16.7265 2.12348C15.3669 0.763837 13.5228 0 11.6 0C9.67718 0 7.83311 0.763837 6.47348 2.12348C5.11384 3.48311 4.35 5.32718 4.35 7.25V10.15C3.19631 10.15 2.08987 10.6083 1.27409 11.4241C0.458302 12.2399 0 13.3463 0 14.5V24.65C0 25.8037 0.458302 26.9101 1.27409 27.7259C2.08987 28.5417 3.19631 29 4.35 29H18.85C20.0037 29 21.1101 28.5417 21.9259 27.7259C22.7417 26.9101 23.2 25.8037 23.2 24.65V14.5C23.2 13.3463 22.7417 12.2399 21.9259 11.4241C21.1101 10.6083 20.0037 10.15 18.85 10.15ZM7.25 7.25C7.25 6.09631 7.7083 4.98987 8.52409 4.17409C9.33987 3.3583 10.4463 2.9 11.6 2.9C12.7537 2.9 13.8601 3.3583 14.6759 4.17409C15.4917 4.98987 15.95 6.09631 15.95 7.25V10.15H7.25V7.25ZM20.3 24.65C20.3 25.0346 20.1472 25.4034 19.8753 25.6753C19.6034 25.9472 19.2346 26.1 18.85 26.1H4.35C3.96544 26.1 3.59662 25.9472 3.3247 25.6753C3.05277 25.4034 2.9 25.0346 2.9 24.65V14.5C2.9 14.1154 3.05277 13.7466 3.3247 13.4747C3.59662 13.2028 3.96544 13.05 4.35 13.05H18.85C19.2346 13.05 19.6034 13.2028 19.8753 13.4747C20.1472 13.7466 20.3 14.1154 20.3 14.5V24.65Z" fill="black"/>
</svg>
