<svg width="27" height="28" viewBox="0 0 27 28" fill="none" xmlns="http://www.w3.org/2000/svg">
<path d="M1.03901 17.601C0.762107 19.4132 1.99841 20.6703 3.51161 21.2969C9.31351 23.7019 17.3865 23.7019 23.1884 21.2969C24.7016 20.6703 25.9379 19.4119 25.661 17.601C25.492 16.4869 24.6509 15.56 24.0282 14.6539C23.2131 13.4527 23.1325 12.1436 23.1312 10.75C23.1325 5.3654 18.7541 1 13.35 1C7.94591 1 3.56751 5.3654 3.56751 10.75C3.56751 12.1436 3.48691 13.454 2.67051 14.6539C2.04911 15.56 1.20931 16.4869 1.03901 17.601Z" stroke="black" stroke-width="1.95" stroke-linecap="round" stroke-linejoin="round"/>
<path d="M8.14996 23.0996C8.74536 25.3421 10.8488 26.9996 13.35 26.9996C15.8525 26.9996 17.9533 25.3421 18.55 23.0996" stroke="black" stroke-width="1.95" stroke-linecap="round" stroke-linejoin="round"/>
</svg>
