<svg width="29" height="27" viewBox="0 0 29 27" fill="none" xmlns="http://www.w3.org/2000/svg">
<path d="M7.63298 23.807L14.1762 19.8603L20.7195 23.859L19.0058 16.381L24.7701 11.3956L17.1882 10.7205L14.1762 3.65799L11.1643 10.6686L3.5824 11.3437L9.34669 16.381L7.63298 23.807ZM14.1762 22.3052L6.63591 26.8585C6.41434 26.9679 6.2087 27.0122 6.01898 26.9914C5.83064 26.9693 5.64716 26.9042 5.46852 26.7962C5.28849 26.6854 5.15278 26.5289 5.06138 26.3267C4.96998 26.1245 4.96167 25.9036 5.03645 25.6641L7.04305 17.1267L0.406324 11.3728C0.219374 11.2205 0.0961259 11.0384 0.0365788 10.8265C-0.0229682 10.6146 -0.00981233 10.4117 0.0760462 10.2179C0.161905 10.024 0.276152 9.86473 0.418788 9.74009C0.562808 9.61962 0.756683 9.53791 1.00041 9.49498L9.75798 8.73057L13.1729 0.646017C13.2671 0.417522 13.4028 0.252729 13.5801 0.151637C13.7573 0.0505456 13.956 0 14.1762 0C14.3964 0 14.5958 0.0505456 14.7745 0.151637C14.9531 0.252729 15.0881 0.417522 15.1795 0.646017L18.5945 8.73057L27.35 9.49498C27.5951 9.53653 27.7896 9.61892 27.9337 9.74217C28.0777 9.86403 28.1926 10.0226 28.2785 10.2179C28.363 10.4117 28.3754 10.6146 28.3159 10.8265C28.2563 11.0384 28.1331 11.2205 27.9461 11.3728L21.3094 17.1267L23.316 25.6641C23.3936 25.9009 23.3859 26.1211 23.2932 26.3246C23.2004 26.5282 23.064 26.6847 22.8839 26.7941C22.7067 26.9049 22.5232 26.9706 22.3335 26.9914C22.1451 27.0122 21.9402 26.9679 21.7186 26.8585L14.1762 22.3052Z" fill="black"/>
</svg>
