<svg width="31" height="31" viewBox="0 0 31 31" fill="none" xmlns="http://www.w3.org/2000/svg">
<path d="M15.5863 22.1303V14.0172M29.0002 15.5C29.0024 17.2724 28.6549 19.0279 27.9774 20.6658C27.3 22.3037 26.306 23.7918 25.0523 25.0448C23.7981 26.2994 22.3089 27.2944 20.6699 27.973C19.0309 28.6517 17.2742 29.0006 15.5002 29C13.5909 29.0042 11.7027 28.6012 9.96155 27.8178L4.31783 28.6526C4.03762 28.6984 3.75047 28.675 3.48132 28.5846C3.21218 28.4942 2.96919 28.3394 2.77344 28.1337C2.5777 27.9281 2.43513 27.6777 2.35811 27.4044C2.2811 27.1312 2.27196 26.8432 2.33151 26.5656L3.11524 20.8401C2.36974 19.1591 1.98968 17.3389 2.00021 15.5C1.99795 13.7275 2.3455 11.972 3.02294 10.3341C3.70039 8.69624 4.69442 7.20815 5.94805 5.95513C7.20229 4.70061 8.69148 3.70558 10.3305 3.02693C11.9695 2.34829 13.7262 1.99933 15.5002 2C19.0826 2.00024 22.5184 3.42283 25.0523 5.95513C26.3053 7.20862 27.2989 8.69681 27.9763 10.3346C28.6537 11.9724 29.0017 13.7276 29.0002 15.5Z" stroke="black" stroke-width="2.18919" stroke-linecap="round" stroke-linejoin="round"/>
</svg>
