<svg width="30" height="30" viewBox="0 0 30 30" fill="none" xmlns="http://www.w3.org/2000/svg">
<path d="M19.6613 4.8545C21.4538 3.0545 24.0763 3.017 25.5276 4.4745C26.9826 5.9345 26.9438 8.5745 25.1488 10.3745L22.1201 13.4158C21.9495 13.5928 21.8553 13.8298 21.8578 14.0756C21.8603 14.3214 21.9592 14.5564 22.1333 14.73C22.3074 14.9036 22.5427 15.0018 22.7885 15.0036C23.0343 15.0054 23.271 14.9105 23.4476 14.7395L26.4776 11.6983C28.8663 9.2995 29.1663 5.47075 26.8563 3.15075C24.5438 0.829501 20.7226 1.132 18.3313 3.53075L12.2738 9.6145C9.88506 12.0133 9.58506 15.842 11.8951 18.1608C11.9813 18.2505 12.0846 18.3221 12.1989 18.3715C12.3131 18.4209 12.4361 18.447 12.5605 18.4484C12.685 18.4497 12.8085 18.4263 12.9238 18.3794C13.0391 18.3326 13.1439 18.2632 13.2322 18.1754C13.3204 18.0876 13.3902 17.9831 13.4377 17.868C13.4851 17.7529 13.5091 17.6295 13.5083 17.5051C13.5075 17.3806 13.482 17.2575 13.4331 17.1431C13.3843 17.0286 13.3131 16.9249 13.2238 16.8383C11.7688 15.3783 11.8088 12.7383 13.6026 10.9383L19.6613 4.8545Z" fill="black"/>
<path d="M18.1063 11.8382C17.9306 11.662 17.6921 11.5629 17.4432 11.5625C17.1944 11.5621 16.9556 11.6607 16.7794 11.8364C16.6032 12.0121 16.504 12.2506 16.5037 12.4994C16.5033 12.7483 16.6018 12.987 16.7775 13.1632C18.2325 14.6232 18.1938 17.262 16.3988 19.0632L10.34 25.1457C8.54628 26.9457 5.92377 26.9832 4.47252 25.5257C3.01752 24.0657 3.05752 21.4257 4.85127 19.6257L7.88127 16.5845C7.96819 16.4972 8.03708 16.3937 8.08399 16.2799C8.1309 16.166 8.15493 16.044 8.1547 15.9209C8.15447 15.7977 8.12998 15.6758 8.08264 15.5621C8.03529 15.4484 7.96602 15.3452 7.87877 15.2582C7.79153 15.1713 7.68802 15.1024 7.57415 15.0555C7.46028 15.0086 7.33829 14.9846 7.21513 14.9848C7.09198 14.9851 6.97008 15.0095 6.85639 15.0569C6.7427 15.1042 6.63944 15.1735 6.55252 15.2607L3.52252 18.302C1.13377 20.702 0.833774 24.5295 3.14377 26.8495C5.45627 29.172 9.27752 28.8682 11.6688 26.4695L17.7275 20.3857C20.1163 17.9882 20.4163 14.157 18.1063 11.8382Z" fill="black"/>
</svg>
