<svg width="22" height="24" viewBox="0 0 22 24" fill="none" xmlns="http://www.w3.org/2000/svg">
<path fill-rule="evenodd" clip-rule="evenodd" d="M6.485 18.75V2.54996L9.71 5.77496C10.01 6.07496 10.475 6.07496 10.7765 5.77496C11.078 5.47496 11.0765 5.00996 10.7765 4.70846L6.2615 0.208457C6.1865 0.148457 6.1115 0.0884574 6.0215 0.0584574C5.8389 -0.0165561 5.63409 -0.0165561 5.4515 0.0584574C5.3615 0.0884574 5.2865 0.148457 5.2265 0.208457L0.726495 4.70846C0.426495 5.00846 0.426495 5.47346 0.726495 5.77496C1.0265 6.07646 1.4915 6.07496 1.793 5.77496L5.018 2.54996V18.75C5.018 19.17 5.348 19.5 5.768 19.5C6.188 19.5 6.518 19.17 6.518 18.75H6.488H6.485ZM15.95 24C16.1326 24.075 16.3374 24.075 16.52 24C16.61 23.955 16.7 23.91 16.76 23.835L21.26 19.335C21.56 19.035 21.56 18.57 21.26 18.2685C20.96 17.967 20.495 17.9685 20.195 18.2685L16.97 21.4935V5.29346C16.97 4.87346 16.64 4.54346 16.22 4.54346C15.8 4.54346 15.47 4.87346 15.47 5.29346V21.4935L12.245 18.2685C11.945 17.9685 11.48 17.9685 11.1785 18.2685C10.877 18.5685 10.8785 19.0335 11.1785 19.335L15.6785 23.835C15.7535 23.895 15.8285 23.955 15.9185 24H15.95Z" fill="black"/>
</svg>
