<svg width="39" height="39" viewBox="0 0 39 39" fill="none" xmlns="http://www.w3.org/2000/svg">
<path d="M19.5 7.3125C18.4226 7.3125 17.3892 7.74051 16.6274 8.50238C15.8655 9.26425 15.4375 10.2976 15.4375 11.375C15.4375 12.4524 15.8655 13.4858 16.6274 14.2476C17.3892 15.0095 18.4226 15.4375 19.5 15.4375C20.5774 15.4375 21.6108 15.0095 22.3726 14.2476C23.1345 13.4858 23.5625 12.4524 23.5625 11.375C23.5625 10.2976 23.1345 9.26425 22.3726 8.50238C21.6108 7.74051 20.5774 7.3125 19.5 7.3125ZM13.8125 11.375C13.8125 10.6281 13.9596 9.88853 14.2454 9.19849C14.5313 8.50845 14.9502 7.88146 15.4783 7.35333C16.0065 6.8252 16.6335 6.40626 17.3235 6.12044C18.0135 5.83461 18.7531 5.6875 19.5 5.6875C20.2469 5.6875 20.9865 5.83461 21.6765 6.12044C22.3666 6.40626 22.9935 6.8252 23.5217 7.35333C24.0498 7.88146 24.4687 8.50845 24.7546 9.19849C25.0404 9.88853 25.1875 10.6281 25.1875 11.375C25.1875 12.8834 24.5883 14.3301 23.5217 15.3967C22.4551 16.4633 21.0084 17.0625 19.5 17.0625C17.9916 17.0625 16.5449 16.4633 15.4783 15.3967C14.4117 14.3301 13.8125 12.8834 13.8125 11.375ZM15.2263 20.3872C14.8471 20.4847 14.4717 20.5942 14.1001 20.7155L12.5418 21.2274C11.9052 21.4346 11.3303 21.7972 10.869 22.2824C10.4077 22.7675 10.0745 23.3599 9.8995 24.0061L9.25113 28.6861C9.10488 29.7375 9.66225 30.6036 10.5446 30.8149C12.2785 31.2292 15.1775 31.6875 19.4984 31.6875C23.8209 31.6875 26.7215 31.2292 28.4554 30.8149C29.3378 30.6036 29.8935 29.7375 29.7489 28.6861L29.0989 24.0061C28.9239 23.3599 28.5907 22.7675 28.1294 22.2824C27.6681 21.7972 27.0932 21.4346 26.4566 21.2274L24.8983 20.7155C24.5267 20.5931 24.1518 20.4837 23.7738 20.3872C23.4802 20.6176 23.1695 20.8251 22.8443 21.008C21.8261 21.5929 20.6742 21.9052 19.5 21.9147C18.1025 21.9148 16.9488 21.4549 16.1558 21.008C15.83 20.8252 15.5203 20.6176 15.2263 20.3872ZM15.6878 18.6079L16.003 18.9183L16.0111 18.9264L16.0501 18.9621C16.088 18.9968 16.1482 19.0466 16.2305 19.1116C16.393 19.2416 16.6384 19.4171 16.952 19.5926C17.5809 19.9469 18.4584 20.2898 19.4984 20.2898C20.5384 20.2898 21.4159 19.9485 22.0448 19.5926C22.3645 19.412 22.666 19.2009 22.945 18.9621L22.9856 18.9247L22.9921 18.9199L23.3074 18.6079L23.7429 18.7086C24.3019 18.8365 24.8555 18.9908 25.4036 19.1718L26.9636 19.6836C27.8679 19.9772 28.6832 20.4947 29.3338 21.1879C29.9844 21.8811 30.4492 22.7276 30.6849 23.6486L30.6963 23.6925L31.356 28.4635C31.5949 30.186 30.6735 31.9573 28.8308 32.396C26.962 32.8413 23.9346 33.3125 19.4984 33.3125C15.0621 33.3125 12.0348 32.8413 10.166 32.396C8.32325 31.9573 7.40188 30.186 7.63913 28.4635L8.3005 23.6925L8.31188 23.6486C8.5476 22.7276 9.01237 21.8811 9.66297 21.1879C10.3136 20.4947 11.1289 19.9772 12.0331 19.6836L13.5931 19.1718C14.1413 18.9919 14.6949 18.8375 15.2539 18.7086L15.6878 18.6079Z" fill="black"/>
</svg>
