<svg width="28" height="28" viewBox="0 0 28 28" fill="none" xmlns="http://www.w3.org/2000/svg">
<path d="M22.771 9.85818H5.9771C5.58737 9.85818 5.2136 10.013 4.93803 10.2886C4.66245 10.5642 4.50763 10.9379 4.50763 11.3276V21.404C4.50763 21.7937 4.66245 22.1675 4.93803 22.4431C5.2136 22.7186 5.58737 22.8734 5.9771 22.8734H22.771C23.1607 22.8734 23.5345 22.7186 23.8101 22.4431C24.0856 22.1675 24.2405 21.7937 24.2405 21.404V11.3276C24.2405 10.9379 24.0856 10.5642 23.8101 10.2886C23.5345 10.013 23.1607 9.85818 22.771 9.85818ZM22.9809 21.404C22.9809 21.4597 22.9588 21.5131 22.9194 21.5524C22.8801 21.5918 22.8267 21.6139 22.771 21.6139H5.9771C5.92142 21.6139 5.86802 21.5918 5.82866 21.5524C5.78929 21.5131 5.76717 21.4597 5.76717 21.404V11.3276C5.76717 11.272 5.78929 11.2186 5.82866 11.1792C5.86802 11.1398 5.92142 11.1177 5.9771 11.1177H22.771C22.8267 11.1177 22.8801 11.1398 22.9194 11.1792C22.9588 11.2186 22.9809 11.272 22.9809 11.3276V21.404ZM6.18702 7.12917C6.18702 6.96215 6.25337 6.80196 6.37147 6.68386C6.48958 6.56575 6.64976 6.4994 6.81679 6.4994H21.9313C22.0983 6.4994 22.2585 6.56575 22.3766 6.68386C22.4947 6.80196 22.5611 6.96215 22.5611 7.12917C22.5611 7.2962 22.4947 7.45638 22.3766 7.57449C22.2585 7.69259 22.0983 7.75895 21.9313 7.75895H6.81679C6.64976 7.75895 6.48958 7.69259 6.37147 7.57449C6.25337 7.45638 6.18702 7.2962 6.18702 7.12917ZM7.86641 3.7704C7.86641 3.60337 7.93276 3.44319 8.05086 3.32508C8.16897 3.20698 8.32915 3.14063 8.49618 3.14062H20.2519C20.4189 3.14062 20.5791 3.20698 20.6972 3.32508C20.8153 3.44319 20.8817 3.60337 20.8817 3.7704C20.8817 3.93742 20.8153 4.09761 20.6972 4.21571C20.5791 4.33382 20.4189 4.40017 20.2519 4.40017H8.49618C8.32915 4.40017 8.16897 4.33382 8.05086 4.21571C7.93276 4.09761 7.86641 3.93742 7.86641 3.7704Z" fill="#539DF3"/>
</svg>
