<svg width="25" height="25" viewBox="0 0 25 25" fill="none" xmlns="http://www.w3.org/2000/svg">
<path fill-rule="evenodd" clip-rule="evenodd" d="M12.252 8.53223C11.2574 8.53223 10.3036 8.92731 9.6003 9.63058C8.89704 10.3338 8.50195 11.2877 8.50195 12.2822C8.50195 13.2768 8.89704 14.2306 9.6003 14.9339C10.3036 15.6371 11.2574 16.0322 12.252 16.0322C13.2465 16.0322 14.2003 15.6371 14.9036 14.9339C15.6069 14.2306 16.002 13.2768 16.002 12.2822C16.002 11.2877 15.6069 10.3338 14.9036 9.63058C14.2003 8.92731 13.2465 8.53223 12.252 8.53223ZM10.002 12.2822C10.002 11.6855 10.239 11.1132 10.661 10.6912C11.0829 10.2693 11.6552 10.0322 12.252 10.0322C12.8487 10.0322 13.421 10.2693 13.8429 10.6912C14.2649 11.1132 14.502 11.6855 14.502 12.2822C14.502 12.879 14.2649 13.4513 13.8429 13.8732C13.421 14.2952 12.8487 14.5322 12.252 14.5322C11.6552 14.5322 11.0829 14.2952 10.661 13.8732C10.239 13.4513 10.002 12.879 10.002 12.2822Z" fill="black"/>
<path fill-rule="evenodd" clip-rule="evenodd" d="M12.2269 1.53223C11.7819 1.53223 11.4109 1.53223 11.1069 1.55223C10.7962 1.56474 10.4896 1.62896 10.1999 1.74223C9.86619 1.88032 9.56291 2.0828 9.30743 2.33811C9.05194 2.59343 8.84926 2.89657 8.71094 3.23023C8.56594 3.58023 8.52694 3.95023 8.51094 4.35223C8.50915 4.49921 8.47016 4.64334 8.39758 4.77117C8.32501 4.899 8.22124 5.00636 8.09594 5.08323C7.96677 5.15355 7.82187 5.18997 7.6748 5.1891C7.52772 5.18823 7.38327 5.15008 7.25494 5.07823C6.89894 4.89023 6.55894 4.73923 6.18294 4.68923C5.82489 4.64213 5.46106 4.66602 5.11224 4.75953C4.76341 4.85304 4.43643 5.01434 4.14994 5.23423C3.90733 5.4287 3.69881 5.66223 3.53294 5.92523C3.36294 6.17923 3.17694 6.50023 2.95494 6.88523L2.92994 6.92923C2.70694 7.31423 2.52194 7.63523 2.38794 7.90923C2.24794 8.19523 2.13794 8.47723 2.09794 8.78923C2.00254 9.51222 2.19822 10.2435 2.64194 10.8222C2.87294 11.1232 3.17394 11.3422 3.51394 11.5562C3.64057 11.6313 3.74608 11.7373 3.82059 11.8643C3.89509 11.9913 3.93616 12.1351 3.93994 12.2822C3.93616 12.4294 3.89509 12.5732 3.82059 12.7002C3.74608 12.8272 3.64057 12.9331 3.51394 13.0082C3.17394 13.2222 2.87394 13.4412 2.64194 13.7422C2.42206 14.0287 2.26076 14.3557 2.16724 14.7045C2.07373 15.0533 2.04984 15.4172 2.09694 15.7752C2.13794 16.0872 2.24694 16.3692 2.38694 16.6552C2.52194 16.9292 2.70694 17.2502 2.92994 17.6352L2.95494 17.6792C3.17694 18.0642 3.36294 18.3852 3.53294 18.6392C3.70994 18.9022 3.89994 19.1392 4.14994 19.3292C4.43635 19.5493 4.7633 19.7108 5.11213 19.8045C5.46096 19.8981 5.82482 19.9222 6.18294 19.8752C6.55894 19.8252 6.89894 19.6752 7.25494 19.4862C7.38315 19.4146 7.52742 19.3765 7.6743 19.3756C7.82118 19.3748 7.96589 19.4111 8.09494 19.4812C8.22126 19.5571 8.32595 19.6642 8.39897 19.7922C8.47199 19.9202 8.51089 20.0649 8.51194 20.2122C8.52694 20.6142 8.56594 20.9842 8.71194 21.3342C8.85003 21.668 9.05252 21.9713 9.30783 22.2267C9.56314 22.4822 9.86628 22.6849 10.1999 22.8232C10.4899 22.9432 10.7899 22.9902 11.1069 23.0112C11.4109 23.0322 11.7819 23.0322 12.2269 23.0322H12.2769C12.7219 23.0322 13.0929 23.0322 13.3969 23.0122C13.7149 22.9902 14.0139 22.9432 14.3039 22.8222C14.6377 22.6841 14.941 22.4817 15.1965 22.2263C15.4519 21.971 15.6546 21.6679 15.7929 21.3342C15.9379 20.9842 15.9769 20.6142 15.9929 20.2122C15.9946 20.0651 16.0335 19.9207 16.1061 19.7927C16.1786 19.6647 16.2825 19.5572 16.4079 19.4802C16.5372 19.4101 16.6821 19.3738 16.8292 19.3749C16.9763 19.3759 17.1207 19.4142 17.2489 19.4862C17.6049 19.6742 17.9449 19.8252 18.3209 19.8742C19.0439 19.9696 19.7752 19.7739 20.3539 19.3302C20.6039 19.1382 20.7939 18.9022 20.9709 18.6392C21.1409 18.3852 21.3269 18.0642 21.5489 17.6792L21.5739 17.6352C21.7969 17.2502 21.9819 16.9292 22.1159 16.6552C22.2559 16.3692 22.3659 16.0862 22.4059 15.7752C22.5013 15.0522 22.3057 14.321 21.8619 13.7422C21.6309 13.4412 21.3299 13.2222 20.9899 13.0082C20.8633 12.9331 20.7578 12.8272 20.6833 12.7002C20.6088 12.5732 20.5677 12.4294 20.5639 12.2822C20.5639 12.0042 20.7159 11.7282 20.9899 11.5562C21.3299 11.3422 21.6299 11.1232 21.8619 10.8222C22.0818 10.5357 22.2431 10.2088 22.3366 9.85993C22.4302 9.51111 22.454 9.14728 22.4069 8.78923C22.3598 8.48182 22.2618 8.18442 22.1169 7.90923C21.9462 7.577 21.7651 7.25018 21.5739 6.92923L21.5489 6.88523C21.3663 6.55931 21.1735 6.23915 20.9709 5.92523C20.805 5.66259 20.5965 5.4294 20.3539 5.23523C20.0675 5.01517 19.7406 4.85369 19.3918 4.76C19.0429 4.66632 18.6791 4.64227 18.3209 4.68923C17.9449 4.73923 17.6049 4.88923 17.2489 5.07823C17.1207 5.1499 16.9765 5.18795 16.8296 5.18882C16.6827 5.1897 16.538 5.15337 16.4089 5.08323C16.2833 5.0066 16.1791 4.89935 16.1062 4.7715C16.0332 4.64366 15.9939 4.4994 15.9919 4.35223C15.9769 3.95023 15.9379 3.58023 15.7919 3.23023C15.6539 2.89648 15.4514 2.5932 15.1961 2.33771C14.9407 2.08223 14.6376 1.87954 14.3039 1.74123C14.0139 1.62123 13.7139 1.57423 13.3969 1.55323C13.0929 1.53223 12.7219 1.53223 12.2769 1.53223H12.2269ZM10.7739 3.12723C10.8509 3.09523 10.9679 3.06623 11.2089 3.04923C11.4559 3.03223 11.7759 3.03223 12.2519 3.03223C12.7279 3.03223 13.0479 3.03223 13.2949 3.04923C13.5359 3.06623 13.6529 3.09523 13.7299 3.12723C14.0369 3.25423 14.2799 3.49723 14.4069 3.80423C14.4469 3.90023 14.4799 4.05123 14.4929 4.40823C14.5229 5.20023 14.9319 5.96323 15.6579 6.38223C16.3839 6.80123 17.2489 6.77423 17.9499 6.40423C18.2659 6.23723 18.4129 6.19023 18.5169 6.17723C18.8455 6.13381 19.1779 6.22266 19.4409 6.42423C19.5069 6.47523 19.5909 6.56223 19.7259 6.76223C19.8649 6.96823 20.0249 7.24523 20.2629 7.65723C20.5009 8.06923 20.6599 8.34723 20.7689 8.56923C20.8759 8.78623 20.9089 8.90223 20.9189 8.98523C20.9624 9.31379 20.8735 9.64615 20.6719 9.90923C20.6079 9.99223 20.4939 10.0962 20.1919 10.2862C19.5199 10.7082 19.0639 11.4442 19.0639 12.2822C19.0639 13.1202 19.5199 13.8562 20.1919 14.2782C20.4939 14.4682 20.6079 14.5722 20.6719 14.6552C20.8739 14.9182 20.9619 15.2502 20.9189 15.5792C20.9089 15.6622 20.8749 15.7792 20.7689 15.9952C20.6599 16.2182 20.5009 16.4952 20.2629 16.9072C20.0249 17.3192 19.8639 17.5962 19.7259 17.8022C19.5909 18.0022 19.5069 18.0892 19.4409 18.1402C19.1779 18.3418 18.8455 18.4306 18.5169 18.3872C18.4129 18.3742 18.2669 18.3272 17.9499 18.1602C17.2499 17.7902 16.3839 17.7622 15.6579 18.1812C14.9319 18.6002 14.5229 19.3642 14.4929 20.1562C14.4799 20.5132 14.4469 20.6642 14.4069 20.7602C14.3441 20.912 14.252 21.0499 14.1358 21.1661C14.0197 21.2823 13.8817 21.3744 13.7299 21.4372C13.6529 21.4692 13.5359 21.4982 13.2949 21.5152C13.0479 21.5322 12.7279 21.5322 12.2519 21.5322C11.7759 21.5322 11.4559 21.5322 11.2089 21.5152C10.9679 21.4982 10.8509 21.4692 10.7739 21.4372C10.6221 21.3744 10.4842 21.2823 10.3681 21.1661C10.2519 21.0499 10.1598 20.912 10.0969 20.7602C10.0569 20.6642 10.0239 20.5132 10.0109 20.1562C9.98094 19.3642 9.57194 18.6012 8.84594 18.1822C8.11994 17.7632 7.25494 17.7902 6.55394 18.1602C6.23794 18.3272 6.09094 18.3742 5.98694 18.3872C5.65838 18.4306 5.32602 18.3418 5.06294 18.1402C4.99694 18.0892 4.91294 18.0022 4.77794 17.8022C4.58982 17.5095 4.41074 17.211 4.24094 16.9072C4.00294 16.4952 3.84394 16.2172 3.73494 15.9952C3.62794 15.7782 3.59494 15.6622 3.58494 15.5792C3.54153 15.2507 3.63037 14.9183 3.83194 14.6552C3.89594 14.5722 4.00994 14.4682 4.31194 14.2782C4.98394 13.8562 5.43994 13.1202 5.43994 12.2822C5.43994 11.4442 4.98394 10.7082 4.31194 10.2862C4.00994 10.0962 3.89594 9.99223 3.83194 9.90923C3.63037 9.64615 3.54153 9.31379 3.58494 8.98523C3.59494 8.90223 3.62894 8.78523 3.73494 8.56923C3.84394 8.34623 4.00294 8.06923 4.24094 7.65723C4.47894 7.24523 4.63994 6.96823 4.77794 6.76223C4.91294 6.56223 4.99694 6.47523 5.06294 6.42423C5.32602 6.22266 5.65838 6.13381 5.98694 6.17723C6.09094 6.19023 6.23694 6.23723 6.55394 6.40423C7.25394 6.77423 8.11994 6.80223 8.84594 6.38223C9.57194 5.96323 9.98094 5.20023 10.0109 4.40823C10.0239 4.05123 10.0569 3.90023 10.0969 3.80423C10.2239 3.49723 10.4669 3.25423 10.7739 3.12723Z" fill="black"/>
</svg>
