<svg width="32" height="32" viewBox="0 0 32 32" fill="none" xmlns="http://www.w3.org/2000/svg">
<circle cx="16" cy="16" r="16" fill="#E7F8FF"/>
<rect width="15" height="15" transform="translate(9 7.80811)" fill="#E7F8FF"/>
<path fill-rule="evenodd" clip-rule="evenodd" d="M15.215 9.83936H17.785C18.9337 9.83936 19.8437 9.83936 20.5556 9.93498C21.2881 10.0337 21.8812 10.2412 22.3494 10.7087C22.8169 11.1769 23.0244 11.77 23.1231 12.5025C23.1794 12.9231 23.2025 13.4125 23.2119 13.9794C23.2196 14.0269 23.2205 14.0753 23.2144 14.1231C23.2181 14.4764 23.2196 14.8598 23.2187 15.2731V15.3431C23.2187 16.4919 23.2187 17.4019 23.1231 18.1137C23.0244 18.8462 22.8169 19.4394 22.3494 19.9075C21.8812 20.375 21.2881 20.5825 20.5556 20.6812C19.8431 20.7769 18.9337 20.7769 17.785 20.7769H15.215C14.0662 20.7769 13.1562 20.7769 12.4444 20.6812C11.7119 20.5825 11.1187 20.375 10.6506 19.9075C10.1831 19.4394 9.97562 18.8462 9.87687 18.1137C9.78125 17.4012 9.78125 16.4919 9.78125 15.3431V15.2731C9.78042 14.8598 9.78187 14.4764 9.78562 14.1231C9.77932 14.0753 9.77995 14.0269 9.7875 13.9794C9.7975 13.4125 9.82062 12.9231 9.87687 12.5025C9.97562 11.77 10.1831 11.1769 10.6506 10.7087C11.1187 10.2412 11.7119 10.0337 12.4444 9.93498C13.1569 9.83936 14.0662 9.83936 15.215 9.83936ZM10.72 14.5269C10.7192 14.7694 10.7187 15.0298 10.7187 15.3081C10.7187 16.5 10.72 17.3469 10.8062 17.9894C10.8906 18.6175 11.0494 18.98 11.3137 19.2444C11.5781 19.5087 11.9406 19.6675 12.5694 19.7519C13.2119 19.8381 14.0581 19.8394 15.25 19.8394H17.75C18.9419 19.8394 19.7887 19.8381 20.4312 19.7519C21.0594 19.6675 21.4219 19.5087 21.6862 19.2444C21.9506 18.98 22.1094 18.6175 22.1937 17.9887C22.28 17.3462 22.2812 16.5 22.2812 15.3081C22.2812 15.0298 22.2808 14.7694 22.28 14.5269H10.72ZM22.265 13.5894H10.735C10.7475 13.2225 10.7687 12.9056 10.8062 12.6269C10.8906 11.9987 11.0494 11.6362 11.3137 11.3719C11.5781 11.1075 11.9406 10.9487 12.5694 10.8644C13.2119 10.7781 14.0581 10.7769 15.25 10.7769H17.75C18.9419 10.7769 19.7887 10.7781 20.4312 10.8644C21.0594 10.9487 21.4219 11.1075 21.6862 11.3719C21.9506 11.6362 22.1094 11.9987 22.1937 12.6275C22.2312 12.9056 22.2525 13.2225 22.265 13.5894ZM12.2812 17.8081C12.2812 17.6838 12.3306 17.5646 12.4185 17.4766C12.5064 17.3887 12.6257 17.3394 12.75 17.3394H15.25C15.3743 17.3394 15.4935 17.3887 15.5815 17.4766C15.6694 17.5646 15.7187 17.6838 15.7187 17.8081C15.7187 17.9324 15.6694 18.0517 15.5815 18.1396C15.4935 18.2275 15.3743 18.2769 15.25 18.2769H12.75C12.6257 18.2769 12.5064 18.2275 12.4185 18.1396C12.3306 18.0517 12.2812 17.9324 12.2812 17.8081ZM16.3437 17.8081C16.3437 17.6838 16.3931 17.5646 16.481 17.4766C16.5689 17.3887 16.6882 17.3394 16.8125 17.3394H17.75C17.8743 17.3394 17.9935 17.3887 18.0815 17.4766C18.1694 17.5646 18.2187 17.6838 18.2187 17.8081C18.2187 17.9324 18.1694 18.0517 18.0815 18.1396C17.9935 18.2275 17.8743 18.2769 17.75 18.2769H16.8125C16.6882 18.2769 16.5689 18.2275 16.481 18.1396C16.3931 18.0517 16.3437 17.9324 16.3437 17.8081Z" fill="black"/>
</svg>
